<?xml version="1.0" standalone="no"?>
<!DOCTYPE svg PUBLIC "-//W3C//DTD SVG 20010904//EN"
 "http://www.w3.org/TR/2001/REC-SVG-20010904/DTD/svg10.dtd">
<svg version="1.0" xmlns="http://www.w3.org/2000/svg"
 width="1080.000000pt" height="1080.000000pt" viewBox="0 0 1080.000000 1080.000000"
 preserveAspectRatio="xMidYMid meet">

<g transform="translate(0.000000,1080.000000) scale(0.100000,-0.100000)"
fill="#000000" stroke="none">
<path d="M2241 6264 c-294 -157 -432 -356 -433 -622 -1 -91 -1 -92 -27 -98
-85 -18 -214 -59 -271 -86 -83 -40 -182 -138 -240 -238 -67 -117 -104 -157
-173 -189 -100 -45 -150 -120 -134 -201 5 -23 2 -30 -14 -35 -18 -6 -20 -12
-14 -63 42 -358 221 -648 505 -819 187 -113 392 -157 621 -133 527 54 787 211
879 530 32 110 38 324 14 526 -10 85 -21 154 -26 154 -5 0 -28 19 -51 43 -24
23 -67 62 -96 87 l-53 45 31 39 c68 84 120 230 107 298 -11 59 -41 78 -161 98
-58 10 -109 20 -112 23 -2 3 0 29 6 59 20 100 23 173 11 258 -21 155 -72 258
-162 330 -68 54 -98 53 -207 -6z m94 -210 c-30 -133 -73 -261 -117 -348 -38
-74 -49 -65 -15 12 29 64 27 91 -11 155 -10 18 -21 41 -25 52 -14 40 20 -13
45 -70 12 -30 25 -55 29 -55 10 0 39 95 39 131 0 19 -6 41 -12 48 -10 11 -10
14 0 18 6 3 13 21 14 41 1 22 4 11 7 -28 l6 -65 30 124 c16 67 31 119 33 113
2 -6 -9 -63 -23 -128z m-176 -344 l20 -74 -21 -31 c-27 -38 -70 -85 -79 -85
-4 0 -10 21 -14 48 -3 26 -17 73 -30 105 -12 31 -21 57 -20 57 8 0 47 -77 62
-122 l16 -51 29 32 c23 25 28 41 28 80 0 27 -7 68 -15 91 -17 48 -19 63 -5 39
5 -8 18 -48 29 -89z m60 -230 c145 -41 240 -106 383 -264 57 -62 134 -140 173
-172 41 -35 63 -60 55 -62 -8 -1 -72 -8 -143 -15 l-127 -13 -18 35 c-21 43
-74 81 -114 81 -68 0 -138 -59 -138 -117 0 -27 10 -26 -330 -58 -146 -14 -277
-27 -292 -30 -23 -4 -29 0 -34 20 -8 32 -64 81 -103 90 -65 14 -141 -37 -156
-104 -3 -17 -14 -32 -23 -35 -9 -3 -84 -10 -165 -17 -162 -14 -167 -13 -167
41 0 47 37 90 103 120 76 35 120 79 187 190 68 112 101 152 158 194 78 57 247
115 397 135 102 14 267 5 354 -19z m250 -454 c58 -31 79 -112 46 -176 -21 -41
-25 -37 -9 9 42 124 -100 211 -184 113 l-24 -27 16 32 c28 57 97 78 155 49z
m-14 -66 c0 -16 -6 -26 -18 -28 -19 -4 -32 20 -23 44 9 25 41 13 41 -16z
m-885 -25 c16 -8 35 -25 41 -38 l12 -22 -25 22 c-49 45 -124 36 -162 -19 -23
-32 -20 -100 5 -132 11 -14 16 -26 10 -26 -20 0 -51 64 -51 103 0 98 87 155
170 112z m1288 -91 c15 -411 -254 -807 -632 -933 -339 -112 -679 -29 -929 227
-135 139 -219 297 -258 487 -25 120 -25 135 4 135 21 0 24 -9 43 -107 48 -249
184 -458 384 -592 152 -101 292 -144 475 -143 262 0 507 123 668 335 130 169
197 371 197 587 0 86 6 103 35 96 6 -2 11 -43 13 -92z m-370 69 c-2 -10 -10
-18 -18 -18 -8 0 -16 8 -18 18 -2 12 3 17 18 17 15 0 20 -5 18 -17z m-974 -36
c8 -12 7 -21 -5 -32 -21 -21 -49 -9 -49 20 0 36 34 44 54 12z m-34 -67 c0 -21
-24 -28 -35 -10 -8 14 3 30 21 30 8 0 14 -9 14 -20z m700 -42 c0 -38 -8 -79
-18 -102 l-18 -40 -61 3 c-70 3 -131 -11 -164 -38 -30 -24 -30 -73 0 -105 l23
-25 -67 -20 c-83 -26 -277 -41 -257 -20 22 23 13 32 -15 14 -32 -21 -92 -16
-176 15 -60 23 -70 35 -37 45 26 8 26 35 0 35 -12 0 -34 -7 -50 -15 -28 -15
-30 -14 -84 35 -49 45 -106 134 -106 166 0 7 34 16 88 22 145 19 146 19 181
-10 35 -30 87 -44 121 -33 12 4 40 23 62 44 l41 36 251 26 c138 15 259 27 269
28 14 1 17 -8 17 -61z m-61 -572 c16 -9 40 -16 51 -16 19 0 21 -4 15 -32 -17
-80 -59 -118 -131 -118 -49 0 -90 28 -110 76 -19 46 -18 64 6 64 29 0 88 56
95 92 l7 30 18 -40 c11 -24 31 -47 49 -56z"/>
<path d="M1417 4649 c-21 -12 -12 -32 11 -25 10 2 29 7 45 10 15 4 27 11 27
16 0 13 -60 12 -83 -1z"/>
<path d="M1221 4617 c-15 -18 -3 -28 25 -22 13 3 35 7 49 10 14 3 25 10 25 15
0 15 -86 12 -99 -3z"/>
<path d="M1533 4539 c-39 -25 -42 -39 -10 -39 21 0 67 36 67 53 0 13 -25 7
-57 -14z"/>
<path d="M7848 5680 c-32 -5 -70 -16 -85 -25 l-28 -15 30 7 c17 5 100 7 185 7
161 -1 162 -2 261 -54 20 -10 47 -32 60 -47 14 -16 32 -32 41 -35 9 -4 21 -29
28 -59 22 -90 -1 -638 -35 -836 l-6 -33 -98 0 -97 0 -17 -112 c-30 -197 -48
-232 -143 -267 -92 -35 -87 -44 -80 147 4 92 11 223 16 292 6 69 17 253 25
410 8 157 18 313 21 347 5 54 4 64 -11 69 -35 14 -47 -8 -51 -86 -3 -75 -16
-286 -34 -585 -6 -88 -13 -172 -16 -187 l-6 -28 -88 0 -89 0 -5 -42 c-3 -24
-8 -86 -11 -138 -12 -214 -16 -240 -35 -240 -10 0 -20 -7 -24 -15 -3 -8 -15
-15 -26 -15 -24 0 -47 -46 -56 -114 -6 -39 -4 -44 17 -49 72 -20 267 2 404 44
79 24 233 97 281 134 51 39 142 177 159 241 30 118 75 638 75 882 0 180 -11
259 -39 270 -8 3 -26 19 -39 34 -14 16 -41 37 -61 47 -20 10 -50 26 -66 34
-37 20 -271 31 -357 17z"/>
<path d="M3931 5638 c-35 -5 -75 -15 -90 -24 l-26 -15 30 5 c137 23 174 17
221 -36 54 -58 56 -73 49 -311 -3 -122 -8 -248 -11 -279 -5 -57 -5 -58 18 -49
42 15 47 44 54 318 6 247 5 262 -14 299 -24 47 -57 79 -95 93 -32 12 -46 12
-136 -1z"/>
<path d="M9058 5636 c-86 -18 -81 -26 10 -19 95 7 130 -4 167 -52 31 -41 44
-74 46 -117 2 -51 -11 -428 -17 -475 -6 -47 6 -55 40 -30 24 17 35 131 36 382
1 185 -3 216 -41 263 -49 63 -113 76 -241 48z"/>
<path d="M9761 5567 c-17 -21 -9 -23 89 -31 125 -10 123 -9 115 -64 -3 -26 -8
-55 -11 -64 -4 -13 0 -18 14 -18 29 0 41 21 54 90 8 49 8 64 -2 70 -7 4 -51
11 -99 14 -47 4 -100 9 -117 12 -20 4 -35 0 -43 -9z"/>
<path d="M10165 5537 c-18 -11 -13 -13 40 -17 l60 -5 -2 -45 c-4 -85 -126
-541 -156 -582 -7 -9 -47 -55 -90 -101 l-78 -85 21 -54 c11 -29 20 -54 20 -55
0 -2 -81 -3 -179 -3 l-179 0 -78 -87 c-88 -101 -96 -117 -135 -272 -33 -130
-36 -173 -12 -192 24 -20 150 -17 188 4 17 9 36 17 42 17 15 0 17 9 38 155 18
121 32 151 103 230 l47 51 23 -55 c18 -44 22 -68 18 -112 -6 -67 -14 -89 -31
-89 -7 0 -15 -6 -18 -14 -3 -8 -16 -16 -29 -18 -32 -4 -70 -80 -66 -133 4 -48
15 -52 160 -54 74 -1 100 3 112 14 8 8 23 15 34 15 11 0 24 6 30 13 16 19 49
148 66 256 14 82 14 97 1 122 -16 30 -93 240 -102 274 -3 16 17 45 81 115 74
83 88 104 107 165 40 129 119 458 122 504 l2 46 -70 2 c-42 2 -78 -2 -90 -10z"/>
<path d="M3833 5434 c-33 -14 -54 -78 -92 -290 -22 -120 -52 -275 -66 -343
-14 -68 -25 -128 -25 -134 0 -6 26 -8 73 -4 86 8 117 16 117 29 0 7 -24 8 -66
3 -61 -6 -66 -5 -61 12 7 23 47 236 92 486 19 109 39 207 45 217 16 30 12 35
-17 24z"/>
<path d="M8971 5414 c-28 -36 -36 -66 -70 -264 -17 -96 -44 -242 -61 -324 -16
-82 -30 -153 -30 -158 0 -9 23 -8 148 9 70 9 52 30 -22 25 -59 -4 -64 -3 -61
14 18 81 69 357 90 484 24 143 31 175 50 223 11 27 -20 21 -44 -9z"/>
<path d="M6465 5413 c-47 -12 -36 -23 23 -23 73 0 69 12 43 -147 -9 -62 -16
-113 -15 -113 15 0 55 26 59 39 6 20 35 215 35 236 0 12 -13 15 -62 14 -35 -1
-72 -3 -83 -6z"/>
<path d="M9811 5275 c-11 -46 -21 -101 -21 -121 0 -42 66 -264 79 -264 4 0 17
10 29 23 21 23 21 23 3 77 -11 30 -27 84 -37 118 -18 65 -17 91 12 225 6 24 3
27 -19 27 -23 0 -26 -7 -46 -85z"/>
<path d="M6988 5313 c-36 -9 -17 -23 31 -23 69 0 74 -10 56 -111 -8 -46 -21
-110 -29 -141 l-13 -58 91 0 c62 0 98 -4 111 -14 19 -13 22 -50 10 -107 -7
-31 2 -36 35 -19 12 6 23 30 30 65 10 48 9 60 -4 81 -16 23 -22 24 -111 24
-52 0 -95 3 -95 7 0 3 12 66 26 140 31 161 30 164 -60 162 -33 -1 -69 -3 -78
-6z"/>
<path d="M4665 5107 c-23 -8 -50 -19 -60 -25 -17 -11 -16 -11 10 -5 17 5 71 8
120 7 157 -1 225 -50 225 -161 l0 -53 51 0 52 0 -6 -45 c-4 -25 -9 -56 -13
-70 -5 -22 -3 -25 19 -25 33 0 35 5 51 94 l13 75 -51 3 -51 3 -6 63 c-7 72
-24 96 -89 125 -57 25 -206 33 -265 14z"/>
<path d="M5915 5083 c-42 -11 -34 -21 25 -32 l62 -12 -7 -57 c-8 -63 -47 -259
-68 -337 l-13 -50 -87 -3 c-85 -3 -87 -3 -93 -30 -22 -97 -39 -144 -56 -153
-33 -18 -68 -2 -84 38 -13 30 -14 66 -5 254 6 120 11 254 11 298 l0 81 -69 0
c-38 0 -76 -3 -85 -6 -33 -13 -14 -24 41 -24 l56 0 -7 -155 c-3 -85 -9 -189
-13 -230 l-6 -75 -88 0 -89 0 0 -92 c0 -111 10 -151 53 -215 30 -45 36 -49
107 -67 72 -18 78 -18 150 -1 221 51 264 111 345 475 68 304 77 375 48 384
-32 9 -108 15 -128 9z"/>
<path d="M6390 4997 c-23 -11 -19 -12 38 -15 47 -2 62 -7 62 -18 0 -17 -47
-317 -55 -351 -5 -22 -10 -23 -99 -23 -69 0 -95 -4 -99 -13 -9 -25 -30 -314
-24 -330 4 -11 18 -17 41 -17 49 0 136 20 136 31 0 5 8 9 18 9 37 0 43 17 62
161 10 79 32 233 49 341 17 108 31 206 31 218 0 18 -6 20 -67 19 -38 0 -79 -6
-93 -12z"/>
<path d="M4613 4910 c-18 -10 -41 -37 -52 -59 -19 -37 -51 -185 -51 -237 0
-23 -2 -24 -89 -24 l-89 0 -6 -37 c-12 -77 -25 -293 -19 -309 5 -14 17 -16 77
-12 39 3 85 12 101 21 17 9 37 18 46 21 18 5 21 31 39 296 13 180 31 277 60
326 25 40 25 40 -17 14z"/>
<path d="M3948 4788 c-46 -16 -32 -28 32 -28 l60 0 -7 -32 c-3 -18 -15 -57
-25 -85 l-19 -53 -265 0 -264 0 -5 -22 c-89 -379 -120 -573 -94 -589 27 -17
119 -10 170 13 58 27 66 43 84 165 12 80 62 313 69 321 2 1 56 9 119 17 76 9
133 22 164 37 43 21 52 31 85 99 21 42 41 97 44 122 l7 47 -64 -1 c-35 0 -76
-5 -91 -11z"/>
<path d="M6996 4773 c-3 -16 -10 -63 -17 -105 l-12 -78 -77 0 -78 0 -12 -115
c-7 -64 -10 -139 -7 -168 4 -46 9 -56 51 -93 54 -49 95 -59 183 -45 93 15 168
58 224 128 9 11 22 22 28 24 13 5 61 270 61 337 0 51 -8 56 -105 56 -58 1 -70
-2 -73 -16 -3 -15 4 -18 45 -18 63 0 75 -9 71 -51 l-3 -34 -91 -3 -91 -3 -18
-99 c-10 -54 -22 -105 -27 -112 -13 -20 -38 19 -38 58 0 31 35 294 45 342 5
19 1 22 -24 22 -24 0 -30 -5 -35 -27z"/>
<path d="M9094 4785 c-17 -13 -14 -14 44 -15 l63 0 -7 -37 c-4 -21 -15 -62
-26 -90 l-19 -53 -265 0 -264 0 -5 -22 c-3 -13 -21 -90 -40 -173 -46 -197 -73
-391 -56 -408 8 -8 45 -12 104 -11 112 0 180 26 300 112 140 100 217 206 221
301 l1 46 -82 0 c-61 -1 -86 -5 -100 -17 -10 -9 -30 -21 -45 -27 -17 -6 -33
-25 -46 -53 -19 -44 -68 -108 -81 -108 -8 0 33 195 49 236 7 19 22 23 122 33
62 7 122 18 133 25 11 7 32 16 47 20 18 4 36 21 53 49 30 52 65 151 65 184 0
22 -3 23 -73 23 -49 0 -80 -5 -93 -15z"/>
</g>
</svg>
