<?xml version="1.0" standalone="no"?>
<!DOCTYPE svg PUBLIC "-//W3C//DTD SVG 20010904//EN"
 "http://www.w3.org/TR/2001/REC-SVG-20010904/DTD/svg10.dtd">
<svg version="1.0" xmlns="http://www.w3.org/2000/svg"
 width="512.000000pt" height="512.000000pt" viewBox="0 0 512.000000 512.000000"
 preserveAspectRatio="xMidYMid meet">

<g transform="translate(0.000000,512.000000) scale(0.100000,-0.100000)"
fill="#000000" stroke="none">
<path d="M3570 4135 c-180 -37 -322 -124 -465 -285 -61 -70 -164 -209 -189
-258 -19 -37 -29 -44 -50 -36 -21 8 -20 23 1 46 16 18 15 19 -28 11 -49 -8
-68 -8 -154 2 -44 5 -78 3 -125 -9 -51 -13 -90 -15 -185 -11 -74 4 -130 3
-147 -4 -30 -11 -28 -17 -49 124 -6 44 -14 83 -18 87 -10 11 -197 -37 -250
-65 -43 -22 -52 -23 -62 -11 -6 8 -17 14 -24 14 -18 0 -142 -137 -166 -182
-11 -21 -22 -38 -25 -38 -3 0 -19 11 -36 25 -16 14 -34 25 -38 25 -5 0 -14
-17 -20 -37 l-12 -38 -117 0 c-114 0 -119 -1 -186 -35 -107 -54 -185 -144
-219 -252 -3 -10 -24 -22 -48 -28 -233 -63 -367 -307 -278 -507 l19 -44 -29
-41 c-64 -88 -91 -243 -56 -323 12 -29 11 -32 -27 -75 -22 -25 -54 -74 -71
-110 -60 -126 -36 -279 59 -375 85 -85 231 -123 353 -91 87 22 137 50 202 112
54 51 58 53 91 44 18 -6 46 -10 60 -10 20 0 34 -12 65 -57 55 -82 225 -248
316 -310 205 -141 491 -233 722 -233 98 0 383 40 539 75 344 77 562 215 691
437 17 29 35 48 46 48 40 0 257 61 317 90 277 129 528 426 592 699 25 105 27
238 6 328 -8 35 -36 105 -62 155 -48 93 -48 93 -46 185 1 51 5 97 8 103 4 6
17 4 35 -5 41 -21 55 -19 92 14 27 24 32 36 36 89 4 58 3 63 -26 92 -35 34
-54 37 -108 14 -49 -21 -169 -13 -257 17 -35 12 -73 18 -89 15 -24 -5 -28 -2
-26 17 0 12 -4 33 -9 47 -6 14 -8 31 -6 38 3 7 -7 28 -21 47 -14 18 -30 45
-35 58 -5 14 -48 84 -95 156 -47 72 -86 141 -86 152 0 12 -22 41 -52 70 l-53
49 -70 -1 c-38 -1 -99 -7 -135 -14z m138 -77 c-22 -28 -34 -34 -81 -40 -67 -9
-176 -53 -255 -105 -79 -52 -245 -221 -321 -328 -87 -123 -125 -205 -118 -256
6 -46 -1 -48 -59 -14 -37 22 -84 71 -84 89 0 3 16 6 36 6 53 0 69 13 111 92
73 140 221 329 322 414 125 104 285 166 445 173 l29 1 -25 -32z m67 -81 c-36
-45 -128 -185 -154 -234 -23 -47 -71 -119 -71 -109 0 12 93 191 128 246 42 67
104 138 115 132 4 -2 -4 -18 -18 -35z m-128 -15 c-7 -15 -49 -97 -93 -182
-116 -221 -169 -403 -181 -628 -5 -98 -4 -115 12 -132 17 -18 16 -19 -9 -26
-27 -6 -134 2 -162 13 -22 8 -17 19 15 33 52 21 62 41 77 161 45 371 117 559
278 727 65 68 82 77 63 34z m243 -87 c43 -65 56 -91 46 -93 -11 -2 -5 -12 17
-32 25 -23 29 -31 20 -41 -10 -10 -5 -17 22 -36 35 -24 45 -43 23 -43 -6 0 1
-13 16 -29 17 -18 24 -31 17 -36 -8 -4 -8 -12 0 -28 9 -16 9 -22 0 -25 -8 -3
-6 -10 4 -25 20 -29 19 -37 -6 -37 -20 0 -20 -1 5 -31 30 -35 33 -49 11 -49
-8 0 -15 -4 -15 -9 0 -5 7 -14 15 -21 17 -15 20 -37 4 -42 -7 -2 -7 -12 2 -32
10 -21 10 -32 1 -46 -6 -11 -9 -26 -6 -34 10 -27 -27 -86 -72 -112 -24 -14
-48 -23 -54 -19 -5 3 -10 2 -10 -3 0 -5 -11 -14 -24 -20 -21 -9 -31 -7 -68 20
-60 42 -68 52 -39 45 18 -4 14 2 -20 31 -24 20 -50 44 -57 52 -17 20 -82 118
-82 125 0 14 42 2 69 -21 29 -24 34 -25 62 -14 28 12 30 16 25 54 -3 23 -3 34
0 26 33 -81 128 -280 132 -276 1 2 -17 50 -41 107 -55 129 -112 301 -132 396
-24 115 -38 299 -25 323 19 35 30 22 30 -36 0 -40 6 -67 21 -90 11 -19 21 -34
22 -34 1 0 0 50 -3 111 -5 102 2 141 21 122 4 -5 35 -48 69 -98z m-455 -27
c-81 -131 -135 -286 -168 -488 l-23 -135 -37 -3 c-30 -3 -37 0 -37 15 0 33
-48 121 -90 167 -23 25 -40 51 -37 58 13 36 141 194 221 274 74 75 174 154
194 154 2 0 -8 -19 -23 -42z m-1323 -178 c10 -71 9 -206 -3 -237 -6 -15 -31
-58 -56 -94 -47 -69 -53 -107 -18 -101 35 6 74 54 106 131 38 92 53 116 91
142 37 27 42 21 23 -24 -18 -43 -18 -47 -5 -47 6 0 29 19 50 41 l40 42 97 -9
c104 -9 221 -9 258 0 19 5 15 -5 -31 -75 -29 -45 -61 -102 -70 -128 -10 -25
-29 -58 -43 -74 -28 -31 -91 -51 -133 -43 -15 3 -28 2 -28 -2 0 -7 -31 -9
-138 -11 -26 0 -57 -9 -79 -22 -80 -50 -18 0 76 61 55 36 101 68 101 72 0 8
-43 -17 -207 -119 -57 -35 -106 -63 -109 -63 -12 0 -74 69 -74 82 0 7 -7 27
-16 43 -9 17 -19 66 -23 110 -8 79 -8 80 -10 20 0 -33 6 -85 14 -115 21 -80
20 -86 -12 -64 -22 15 -47 19 -115 19 -52 0 -88 4 -88 10 0 28 -53 118 -91
154 -35 35 -40 45 -32 63 9 20 10 20 47 -13 21 -18 60 -65 85 -104 54 -81 75
-91 95 -44 17 42 11 64 -30 97 -71 58 -82 124 -32 193 31 43 31 43 40 19 10
-28 37 -60 50 -60 4 0 8 10 8 22 0 39 48 107 93 130 47 24 124 47 147 45 10
-2 17 -18 22 -47z m2114 -225 c60 -25 203 -39 260 -25 87 20 89 20 92 -25 3
-44 -17 -83 -37 -70 -12 7 -10 27 5 72 9 25 -14 3 -30 -29 -10 -20 -19 -23
-57 -20 -24 1 -84 11 -132 20 -78 16 -87 17 -81 3 39 -96 17 -197 -60 -287
-29 -34 -35 -37 -50 -25 -14 12 -11 18 33 60 51 47 71 93 71 159 0 49 -25 100
-60 120 -16 9 -30 24 -30 33 0 33 22 37 76 14z m-2729 -44 c52 -24 78 -61 68
-98 -22 -90 -277 -247 -330 -203 -8 7 -40 20 -72 30 -69 21 -76 41 -42 120 27
63 101 131 166 153 67 22 158 21 210 -2z m1351 -102 c43 -39 47 -45 17 -24
-59 42 -125 107 -125 125 0 9 10 3 25 -17 14 -17 51 -55 83 -84z m732 -126 c0
0 -23 7 -50 18 -28 10 -59 19 -70 19 -23 0 -23 -1 -10 76 20 115 16 115 75 -3
30 -59 55 -109 55 -110z m-566 145 c25 -29 36 -51 36 -73 0 -38 -5 -44 -31
-38 -16 5 -19 11 -14 31 4 17 -2 36 -19 63 -47 70 -27 82 28 17z m1320 13 c-4
-9 -10 -77 -14 -151 -4 -75 -12 -145 -18 -155 -10 -19 -12 -18 -23 13 -6 18
-19 37 -29 42 -17 9 -16 12 5 54 15 30 25 73 30 128 4 46 9 86 11 90 2 3 13 4
25 1 14 -4 18 -10 13 -22z m-160 -7 c16 -42 -2 -144 -26 -144 -11 0 -10 47 1
54 4 3 6 28 3 56 -4 48 9 69 22 34z m241 -3 c3 -11 1 -57 -5 -103 -10 -80 -3
-136 24 -198 5 -13 -3 -16 -49 -16 -51 0 -54 2 -47 21 4 11 6 68 4 128 -3 133
9 187 43 187 14 0 26 -7 30 -19z m-2539 -157 c109 -45 111 -111 6 -205 -27
-24 -73 -56 -102 -71 l-53 -27 -29 21 c-37 26 -110 48 -160 48 -42 0 -44 4
-27 64 12 43 78 120 123 143 83 44 177 54 242 27z m-717 -72 c19 -9 43 -29 54
-43 17 -23 18 -32 8 -62 -18 -52 -99 -122 -197 -169 -72 -35 -97 -42 -149 -42
-48 -1 -68 3 -84 18 -70 63 -3 224 120 286 82 42 178 47 248 12z m2325 7 c52
-14 92 -54 76 -74 -17 -21 -41 -19 -47 4 -3 11 -19 25 -36 31 -68 25 -77 30
-77 40 0 13 35 13 84 -1z m-319 -39 l30 -7 -27 -7 c-51 -15 -32 -38 52 -62 14
-4 63 -10 110 -14 l85 -7 -75 -2 c-42 0 -102 6 -135 14 -65 17 -136 53 -142
72 -6 18 50 26 102 13z m1104 -38 l13 -42 -63 -105 c-76 -127 -161 -230 -253
-307 -71 -60 -223 -154 -232 -145 -3 3 -8 23 -11 45 l-5 39 88 47 c94 50 232
145 261 180 18 21 18 21 -7 0 -82 -71 -326 -212 -340 -197 -4 4 -12 49 -19 98
-7 50 -14 100 -16 112 -4 18 2 24 33 34 20 6 118 51 217 99 138 67 193 99 235
138 30 28 62 50 70 49 8 -1 21 -21 29 -45z m-143 27 c10 -17 -26 -41 -146
-100 -319 -157 -495 -214 -723 -235 -71 -6 -77 -5 -77 12 0 11 -3 36 -6 57
l-7 37 56 0 c223 0 599 93 795 196 91 48 97 50 108 33z m-328 -58 c3 -8 -1
-12 -9 -9 -7 2 -15 10 -17 17 -3 8 1 12 9 9 7 -2 15 -10 17 -17z m-1610 -47
c30 -13 75 -30 100 -36 65 -17 78 -32 21 -25 -90 12 -219 72 -219 103 0 15 2
15 23 0 12 -9 46 -28 75 -42z m2274 17 c52 -65 86 -247 69 -362 -25 -156 -106
-322 -225 -461 -147 -171 -325 -284 -525 -334 -56 -14 -104 -24 -106 -22 -2 2
5 32 15 66 11 35 25 103 31 151 l12 88 88 32 c220 82 397 238 493 436 46 93
77 205 75 272 -1 24 -6 5 -15 -49 -42 -270 -254 -525 -532 -638 -121 -49 -109
-60 -110 95 l-2 135 53 26 c207 105 390 292 500 511 20 39 44 74 54 77 39 11
107 -2 125 -23z m-2853 -81 c55 -28 71 -47 71 -85 0 -95 -214 -236 -357 -235
-97 1 -128 70 -79 176 60 128 249 204 365 144z m1461 -19 c14 -10 36 -33 48
-52 20 -29 23 -44 20 -94 -2 -36 -11 -71 -22 -88 -25 -37 -32 -27 -11 14 46
87 -27 212 -122 212 -50 0 -99 -26 -124 -66 -18 -28 -20 -28 -14 -7 10 35 64
89 100 100 39 12 94 3 125 -19z m-843 -66 c61 -31 78 -64 58 -111 -25 -57 -35
-62 -130 -74 -49 -6 -106 -13 -126 -15 l-36 -5 -7 47 c-3 27 -17 61 -32 81
-22 28 -24 36 -13 43 94 63 201 76 286 34z m818 -9 c0 -36 -26 -56 -49 -37
-16 14 -22 52 -9 65 4 4 19 6 33 4 20 -2 25 -8 25 -32z m-220 -51 l0 -65 -37
0 c-20 0 -70 -4 -110 -9 -40 -5 -101 -12 -135 -16 l-61 -6 -7 31 c-8 36 -7 37
20 42 17 2 19 -2 17 -24 -3 -33 13 -37 28 -7 9 15 8 24 0 35 -10 11 -8 18 11
34 26 21 49 27 154 39 131 15 120 20 120 -54z m-927 8 c14 -10 32 -30 41 -43
16 -25 16 -25 -17 2 -55 46 -115 48 -175 6 -61 -43 -76 -137 -32 -202 32 -47
14 -47 -22 1 -24 31 -28 46 -28 98 0 52 4 67 29 99 16 21 43 44 60 52 40 18
111 12 144 -13z m1182 -9 c11 -12 10 -18 -3 -32 -16 -15 -18 -15 -34 0 -13 14
-14 20 -3 32 7 9 16 16 20 16 4 0 13 -7 20 -16z m-1275 -47 c21 -16 15 -61
-10 -71 -41 -15 -75 45 -40 71 11 7 22 13 25 13 3 0 14 -6 25 -13z m-718 -22
c58 -25 73 -43 73 -90 0 -49 -10 -60 -62 -70 -34 -6 -37 -10 -32 -31 9 -34
-13 -55 -99 -95 -53 -24 -90 -34 -139 -37 -61 -4 -69 -2 -92 21 -67 67 2 226
122 283 76 36 169 44 229 19z m2503 -112 c0 -140 -11 -236 -36 -316 -9 -29
-25 -81 -36 -117 -25 -80 -105 -241 -159 -317 -89 -129 -252 -286 -356 -345
-21 -11 -54 -31 -73 -43 -19 -13 -75 -37 -125 -55 -49 -18 -98 -36 -107 -41
-38 -19 -197 -39 -313 -39 -116 0 -287 21 -309 39 -6 4 -42 18 -81 30 -38 12
-84 30 -102 39 -162 85 -274 170 -377 285 -181 201 -276 410 -332 729 -6 34
-4 39 21 48 40 15 44 13 50 -27 29 -192 53 -277 114 -408 107 -228 297 -428
516 -542 312 -162 683 -163 995 -2 400 206 652 641 638 1102 l-3 107 38 0 37
0 0 -127z m-1822 33 c-2 -11 -10 -22 -19 -24 -21 -4 -33 26 -18 44 15 18 41 5
37 -20z m926 -131 c0 -57 -6 -93 -20 -125 l-20 -44 -89 -1 c-106 -2 -163 -16
-205 -51 -42 -36 -42 -90 0 -137 l30 -34 -73 -22 c-85 -25 -194 -40 -291 -41
-59 0 -67 2 -56 15 22 26 6 38 -22 16 -14 -12 -39 -21 -55 -21 -38 0 -137 24
-206 50 l-58 22 32 21 c18 12 33 27 33 32 2 17 -52 17 -89 -1 -35 -16 -36 -16
-70 11 -86 65 -154 159 -170 232 -6 31 -6 31 47 41 107 21 302 34 331 23 44
-17 99 -13 142 11 26 13 64 22 105 25 36 2 193 17 350 32 157 16 301 28 320
28 l35 -2 -1 -80z m973 -147 c-3 -7 -5 -2 -5 12 0 14 2 19 5 13 2 -7 2 -19 0
-25z m-2500 -20 c-3 -8 -6 -5 -6 6 -1 11 2 17 5 13 3 -3 4 -12 1 -19z m10 -50
c-3 -8 -6 -5 -6 6 -1 11 2 17 5 13 3 -3 4 -12 1 -19z m2420 0 c-3 -8 -6 -5 -6
6 -1 11 2 17 5 13 3 -3 4 -12 1 -19z m-2487 -26 c0 -24 -2 -25 -15 -11 -9 9
-13 23 -9 32 9 24 24 11 24 -21z m-120 6 c89 -45 85 -105 -11 -192 -108 -97
-266 -150 -339 -113 -42 21 -55 61 -40 125 10 47 21 65 69 112 66 66 117 88
211 89 49 1 77 -5 110 -21z m1614 -489 c16 -12 45 -25 65 -29 35 -6 36 -7 34
-49 -4 -88 -73 -151 -165 -151 -81 0 -141 56 -162 151 -5 23 -2 27 33 37 67
20 88 43 116 127 6 17 10 14 28 -22 12 -23 35 -52 51 -64z"/>
<path d="M3765 3718 c3 -12 12 -58 19 -101 7 -43 19 -84 26 -90 10 -10 11 -9
4 3 -5 8 -11 44 -14 79 l-6 64 36 -43 c19 -24 50 -59 69 -79 l34 -36 -30 35
c-16 20 -50 68 -76 108 -53 79 -71 96 -62 60z"/>
<path d="M3945 3490 c10 -11 20 -20 23 -20 3 0 -3 9 -13 20 -10 11 -20 20 -23
20 -3 0 3 -9 13 -20z"/>
<path d="M3811 3464 c2 -5 38 -39 79 -75 102 -87 128 -105 55 -38 -95 88 -139
125 -134 113z"/>
<path d="M1922 3460 c0 -14 2 -19 5 -12 2 6 2 18 0 25 -3 6 -5 1 -5 -13z"/>
<path d="M2080 3190 c-19 -11 -30 -19 -25 -19 6 0 26 8 45 19 19 11 31 19 25
19 -5 0 -26 -8 -45 -19z"/>
<path d="M1703 2310 c-34 -14 -28 -30 11 -30 39 0 96 18 96 31 0 12 -78 11
-107 -1z"/>
<path d="M1462 2274 c-34 -24 -26 -34 26 -34 51 0 90 19 78 38 -10 17 -78 15
-104 -4z"/>
<path d="M1885 2181 c-22 -10 -48 -28 -59 -39 -18 -21 -18 -22 -1 -29 22 -8
83 25 103 55 19 29 3 34 -43 13z"/>
</g>
</svg>
